<svg xmlns="http://www.w3.org/2000/svg" viewBox="0 0 415.18 107.25"><defs><style>.cls-1{fill:#00bad6;}.cls-2{fill:#006880;}</style></defs><g id="Layer_2" data-name="Layer 2"><g id="Layer_1-2" data-name="Layer 1"><path class="cls-1" d="M53.62,0a53.63,53.63,0,1,1,0,107.25h-.44L75.85,84.57a.56.56,0,0,0,.23-.23,1.77,1.77,0,0,0,.16-1l-.39-4.56L74.21,59.32a4.62,4.62,0,0,1,1.89-3.85L97,42l1-.67c1.15-.75,1-1.51-.38-1.7L73.38,36.22l-.19,0a3.3,3.3,0,0,1-1.54-.69,4.54,4.54,0,0,1-1.8-2.4L63.28,7.83c-.35-1.33-1.13-1.41-1.74-.17l-1,2L50.81,30.6a3.84,3.84,0,0,1-3.55,2L28.06,31l-3.78-.34a1.74,1.74,0,0,0-1,.16A.63.63,0,0,0,23,31L0,54v-.4A53.62,53.62,0,0,1,53.62,0Z"/><path class="cls-2" d="M23.44,32.28,39.36,50.35a4.62,4.62,0,0,1,.77,4.21L31,79c-.28.74-.19,1.22.16,1.37l22.15-12A3.35,3.35,0,0,1,55,68a3.63,3.63,0,0,1,3,.86l7.21,6.93,9.42,8.36c.52.46,1,.59,1.27.43L53.18,107.24A53.62,53.62,0,0,1,0,54L23,31C22.85,31.31,23,31.76,23.44,32.28Z"/><path class="cls-2" d="M210.46,10.58a1.83,1.83,0,0,1,1.86,1.86v82a1.81,1.81,0,0,1-1.86,1.74H189a3.37,3.37,0,0,1-2.61-1.62L164.83,56V94.4A1.81,1.81,0,0,1,163,96.14H141a1.78,1.78,0,0,1-1.74-1.74v-82A1.81,1.81,0,0,1,141,10.58h21.45a3.27,3.27,0,0,1,2.85,1.61l21.45,38.57V12.44a1.89,1.89,0,0,1,1.74-1.86Z"/><path class="cls-2" d="M280.64,73.82a1.79,1.79,0,0,1,1.86,1.61v19a1.89,1.89,0,0,1-1.86,1.74H223c-.86,0-1.73-1-2-1.86v-82a1.57,1.57,0,0,1,1.74-1.74h56.41a1.93,1.93,0,0,1,2,1.74V31a1.86,1.86,0,0,1-2,1.86H246.79v9.8h26.29a1.49,1.49,0,0,1,1.61,1.61L273,61.67a2.17,2.17,0,0,1-2.11,1.61h-24V73.82Z"/><path class="cls-2" d="M296.27,70.1c.37-1.24,1.24-1.61,2.23-1,5.7,3.22,12.52,5.58,17.23,6,4,0,6.57-1.86,6.57-4.71,0-7.32-34.84-6.95-34.84-34,0-16.61,12.53-27.65,31.37-27.65,8.81,0,20,3.6,27.78,8.93,1,.62,1.36,1.61,1,2.23l-7.81,17.48c-.38,1.24-1.24,1.62-2.23,1-6.08-3.48-13.15-6.08-17.49-6.45-3.84,0-6.32,1.73-6.32,4.46,0,7.32,35.09,6.82,35.09,34.1C348.84,87,336.07,98,317,98c-10.41,0-21.32-3.23-27.52-8.19-1-.74-1.37-1.61-1-2.23Z"/><path class="cls-2" d="M362.6,70.1c.38-1.24,1.24-1.61,2.24-1,5.7,3.22,12.52,5.58,17.23,6,4,0,6.57-1.86,6.57-4.71,0-7.32-34.84-6.95-34.84-34,0-16.61,12.52-27.65,31.37-27.65,8.8,0,20,3.6,27.78,8.93,1,.62,1.36,1.61,1,2.23l-7.81,17.48c-.38,1.24-1.24,1.62-2.24,1-6.07-3.48-13.14-6.08-17.48-6.45-3.84,0-6.32,1.73-6.32,4.46,0,7.32,35.09,6.82,35.09,34.1C415.18,87,402.41,98,383.31,98c-10.41,0-21.33-3.23-27.52-8.19-1-.74-1.37-1.61-1-2.23Z"/></g></g></svg>