<svg xmlns="http://www.w3.org/2000/svg" viewBox="0 0 107.25 107.25"><defs><style>.cls-1{fill:#00bad6;}.cls-2{fill:#006880;}</style></defs><g id="Layer_2" data-name="Layer 2"><g id="Layer_1-2" data-name="Layer 1"><path class="cls-1" d="M53.62,0a53.63,53.63,0,1,1,0,107.25h-.44L75.85,84.57a.56.56,0,0,0,.23-.23,1.77,1.77,0,0,0,.16-1l-.39-4.56L74.21,59.32a4.62,4.62,0,0,1,1.89-3.85L97,42l1-.67c1.15-.75,1-1.51-.38-1.7L73.38,36.22l-.19,0a3.3,3.3,0,0,1-1.54-.69,4.54,4.54,0,0,1-1.8-2.4L63.28,7.83c-.35-1.33-1.13-1.41-1.74-.17l-1,2L50.81,30.6a3.84,3.84,0,0,1-3.55,2L28.06,31l-3.78-.34a1.74,1.74,0,0,0-1,.16A.63.63,0,0,0,23,31L0,54v-.4A53.62,53.62,0,0,1,53.62,0Z"/><path class="cls-2" d="M23.44,32.28,39.36,50.35a4.62,4.62,0,0,1,.77,4.21L31,79c-.28.74-.19,1.22.16,1.37l22.15-12A3.35,3.35,0,0,1,55,68a3.63,3.63,0,0,1,3,.86l7.21,6.93,9.42,8.36c.52.46,1,.59,1.27.43L53.18,107.24A53.62,53.62,0,0,1,0,54L23,31C22.85,31.31,23,31.76,23.44,32.28Z"/></g></g></svg>
